<svg xmlns="http://www.w3.org/2000/svg" viewBox="0 0 1200 630" role="img" aria-label="Curse Monitor by Lorapok Labs">
  <defs>
    <linearGradient id="og-bg" x1="0" y1="0" x2="1200" y2="630" gradientUnits="userSpaceOnUse">
      <stop offset="0%" stop-color="#06080d"/>
      <stop offset="100%" stop-color="#111827"/>
    </linearGradient>
    <linearGradient id="og-ring" x1="80" y1="80" x2="360" y2="360" gradientUnits="userSpaceOnUse">
      <stop offset="0%" stop-color="#39ff14"/>
      <stop offset="100%" stop-color="#6C5CE7"/>
    </linearGradient>
    <linearGradient id="og-armor" x1="90" y1="80" x2="280" y2="280" gradientUnits="userSpaceOnUse">
      <stop offset="0%" stop-color="#4b5568"/>
      <stop offset="50%" stop-color="#1c2330"/>
      <stop offset="100%" stop-color="#2a3344"/>
    </linearGradient>
  </defs>
  <rect width="1200" height="630" fill="url(#og-bg)"/>
  <circle cx="180" cy="315" r="210" fill="#6C5CE7" opacity="0.12"/>
  <circle cx="1080" cy="80" r="160" fill="#39ff14" opacity="0.08"/>
  <g transform="translate(72,187) scale(2)">
    <rect width="128" height="128" rx="28" fill="#0a0a12"/>
    <circle cx="64" cy="64" r="58" stroke="url(#og-ring)" stroke-width="2.5" fill="none" stroke-dasharray="8 6"/>
    <path d="M64 28 V14" stroke="#6C5CE7" stroke-width="2.4" stroke-linecap="round"/>
    <circle cx="64" cy="12" r="4.2" fill="#39ff14"/>
    <ellipse cx="64" cy="96" rx="26" ry="16" fill="url(#og-armor)" stroke="#4a5568"/>
    <ellipse cx="64" cy="82" rx="30" ry="18" fill="url(#og-armor)" stroke="#4a5568"/>
    <path d="M38 84 Q28 92 30 104" stroke="#6C5CE7" stroke-width="3" stroke-linecap="round" fill="none"/>
    <path d="M90 84 Q100 92 98 104" stroke="#6C5CE7" stroke-width="3" stroke-linecap="round" fill="none"/>
    <ellipse cx="64" cy="54" rx="32" ry="30" fill="url(#og-armor)" stroke="#6C5CE7" stroke-width="1.6"/>
    <ellipse cx="52" cy="54" rx="9" ry="10.5" fill="#07090e" stroke="#39ff14"/>
    <ellipse cx="76" cy="54" rx="9" ry="10.5" fill="#07090e" stroke="#39ff14"/>
    <circle cx="52" cy="55" r="4.4" fill="#39ff14"/>
    <circle cx="76" cy="55" r="4.4" fill="#39ff14"/>
    <path d="M54 66 Q64 74 74 66" stroke="#39ff14" stroke-width="2.4" stroke-linecap="round" fill="none"/>
  </g>
  <text x="420" y="250" fill="#f1f5fb" font-size="64" font-family="DM Sans, Segoe UI, sans-serif" font-weight="700">Curse Monitor</text>
  <text x="420" y="318" fill="#6C5CE7" font-size="32" font-family="DM Sans, Segoe UI, sans-serif" font-weight="600">by Lorapok Labs</text>
  <text x="420" y="390" fill="#39ff14" font-size="28" font-family="DM Sans, Segoe UI, sans-serif" font-style="italic">Know your limits before they know you.</text>
  <text x="420" y="460" fill="#8b9bb8" font-size="22" font-family="JetBrains Mono, monospace">CLI + agent plugin - curse.lorapok.tech</text>
</svg>
